<?xml version="1.0" encoding="utf-8"?>
<!-- Generator: Adobe Illustrator 21.0.0, SVG Export Plug-In . SVG Version: 6.00 Build 0)  -->
<svg version="1.1" id="Layer_1" xmlns="http://www.w3.org/2000/svg" xmlns:xlink="http://www.w3.org/1999/xlink" x="0px" y="0px"
	 viewBox="0 0 175 117" style="enable-background:new 0 0 175 117;" xml:space="preserve">
<style type="text/css">
	.st0{fill:#FFFFFF;}
	.st1{opacity:0.7;}
</style>
<g>
	<circle id="XMLID_54_" class="st0" cx="29.5" cy="29.5" r="28.5"/>
	<path id="XMLID_53_" d="M32,22.8v-2.7c0-1.3,0.9-1.6,1.5-1.6c0.6,0,3.8,0,3.8,0v-5.8l-5.2,0c-5.8,0-7.1,4.3-7.1,7.1v3.1h-3.3v4.1
		v2.7H25c0,7.7,0,16.9,0,16.9h6.8c0,0,0-9.3,0-16.9h5l0.2-2.7l0.4-4.1H32z"/>
</g>
<g class="st1">
	<circle id="XMLID_3_" class="st0" cx="29.5" cy="87.5" r="28.5"/>
	<path id="XMLID_1_" d="M32,80.8v-2.7c0-1.3,0.9-1.6,1.5-1.6c0.6,0,3.8,0,3.8,0v-5.8l-5.2,0c-5.8,0-7.1,4.3-7.1,7.1v3.1h-3.3v4.1
		v2.7H25c0,7.7,0,16.9,0,16.9h6.8c0,0,0-9.3,0-16.9h5l0.2-2.7l0.4-4.1H32z"/>
</g>
<g>
	<circle id="XMLID_45_" class="st0" cx="87.5" cy="29.5" r="28.5"/>
	<g>
		<polygon id="XMLID_44_" points="71.3,28.4 71.3,44.9 79.2,44.9 79.2,27.1 79.2,22.4 71.3,22.4 		"/>
		<circle id="XMLID_43_" cx="75.3" cy="15.1" r="3.9"/>
		<path id="XMLID_42_" d="M104.9,29.3c-0.5-4.2-2.5-6.9-8.2-6.9c-3.4,0-5.7,1.3-6.6,3H90v-3h-6.3v4.3v18.2h6.6V33.8
			c0-2.9,0.6-5.8,4.2-5.8c3.6,0,3.9,3.4,3.9,6v11h6.8V32.6h0C105.1,31.4,105.1,30.3,104.9,29.3z"/>
	</g>
</g>
<g>
	<circle id="XMLID_39_" class="st0" cx="145.5" cy="29.5" r="28.5"/>
	<path d="M162,22.5c0,0-0.3-2.4-1.3-3.5c-1.3-1.4-2.7-1.4-3.4-1.5c-4.7-0.4-11.8-0.4-11.8-0.4h0c0,0-7.1,0-11.8,0.4
		c-0.7,0.1-2.1,0.1-3.4,1.5c-1,1.1-1.3,3.5-1.3,3.5s-0.3,2.8-0.3,5.7v0.3v2.3c0,2.9,0.3,5.7,0.3,5.7s0.3,2.4,1.3,3.5
		c1.3,1.4,3,1.4,3.7,1.5c2.7,0.3,11.5,0.4,11.5,0.4s7.1,0,11.8-0.4c0.7-0.1,2.1-0.1,3.4-1.5c1-1.1,1.3-3.5,1.3-3.5s0.3-2.8,0.3-5.7
		v-2.2v-0.5C162.4,25.4,162,22.5,162,22.5z M151.1,29.2l-9.1,4.9l0-7.6l0-2.3l4.1,2.2L151.1,29.2z"/>
</g>
<g class="st1">
	<circle id="XMLID_14_" class="st0" cx="87.5" cy="87.5" r="28.5"/>
	<g>
		<polygon id="XMLID_13_" points="71.3,86.4 71.3,102.9 79.2,102.9 79.2,85.1 79.2,80.4 71.3,80.4 		"/>
		<circle id="XMLID_12_" cx="75.3" cy="73.1" r="3.9"/>
		<path id="XMLID_11_" d="M104.9,87.3c-0.5-4.2-2.5-6.9-8.2-6.9c-3.4,0-5.7,1.3-6.6,3H90v-3h-6.3v4.3v18.2h6.6V91.8
			c0-2.9,0.6-5.8,4.2-5.8c3.6,0,3.9,3.4,3.9,6v11h6.8V90.6h0C105.1,89.4,105.1,88.3,104.9,87.3z"/>
	</g>
</g>
<g class="st1">
	<circle id="XMLID_9_" class="st0" cx="145.5" cy="87.5" r="28.5"/>
	<path d="M162,80.5c0,0-0.3-2.4-1.3-3.5c-1.3-1.4-2.7-1.4-3.4-1.5c-4.7-0.4-11.8-0.4-11.8-0.4h0c0,0-7.1,0-11.8,0.4
		c-0.7,0.1-2.1,0.1-3.4,1.5c-1,1.1-1.3,3.5-1.3,3.5s-0.3,2.8-0.3,5.7v0.3v2.3c0,2.9,0.3,5.7,0.3,5.7s0.3,2.4,1.3,3.5
		c1.3,1.4,3,1.4,3.7,1.5c2.7,0.3,11.5,0.4,11.5,0.4s7.1,0,11.8-0.4c0.7-0.1,2.1-0.1,3.4-1.5c1-1.1,1.3-3.5,1.3-3.5s0.3-2.8,0.3-5.7
		v-2.2v-0.5C162.4,83.4,162,80.5,162,80.5z M151.1,87.2l-9.1,4.9l0-7.6l0-2.3l4.1,2.2L151.1,87.2z"/>
</g>
</svg>
